<?xml version="1.0" encoding="utf-8"?>
<!-- Generator: Adobe Illustrator 21.1.0, SVG Export Plug-In . SVG Version: 6.00 Build 0)  -->
<svg version="1.1" id="Capa_1" xmlns="http://www.w3.org/2000/svg" xmlns:xlink="http://www.w3.org/1999/xlink" x="0px" y="0px"
	 viewBox="0 0 60 60" style="enable-background:new 0 0 60 60;" xml:space="preserve">
<style type="text/css">
	.st0{fill:#FFFFFF;}
</style>
<path class="st0" d="M0,30c0,16.5,13.5,30,30,30s30-13.5,30-30S46.5,0,30,0C13.5,0,0,13.5,0,30z M4,30c0-0.3,0.2-0.6,0.4-0.8l22-15
	c0.3-0.2,0.7-0.2,1-0.1c0.3,0.2,0.5,0.5,0.5,0.9v13.1l20.4-13.9c0.3-0.2,0.7-0.2,1-0.1c0.3,0.2,0.5,0.5,0.5,0.9v30
	c0,0.4-0.2,0.7-0.5,0.9C49.3,46,49.2,46,49,46c-0.2,0-0.4-0.1-0.6-0.2L28,31.9V45c0,0.4-0.2,0.7-0.5,0.9C27.3,46,27.2,46,27,46
	c-0.2,0-0.4-0.1-0.6-0.2l-22-15C4.2,30.6,4,30.3,4,30z"/>
</svg>
