<?xml version="1.0" encoding="utf-8"?>
<!-- Generator: Adobe Illustrator 21.1.0, SVG Export Plug-In . SVG Version: 6.00 Build 0)  -->
<svg version="1.1" id="Capa_1" xmlns="http://www.w3.org/2000/svg" xmlns:xlink="http://www.w3.org/1999/xlink" x="0px" y="0px"
	 viewBox="0 0 60 60" style="enable-background:new 0 0 60 60;" xml:space="preserve">
<style type="text/css">
	.st0{fill:#FFFFFF;}
</style>
<path class="st0" d="M30,0C13.5,0,0,13.5,0,30s13.5,30,30,30s30-13.5,30-30S46.5,0,30,0z M55.6,30.8l-22,15C33.4,45.9,33.2,46,33,46
	c-0.2,0-0.3,0-0.5-0.1C32.2,45.7,32,45.4,32,45V31.9L11.6,45.8C11.4,45.9,11.2,46,11,46c-0.2,0-0.3,0-0.5-0.1
	C10.2,45.7,10,45.4,10,45V15c0-0.4,0.2-0.7,0.5-0.9c0.3-0.2,0.7-0.1,1,0.1L32,28.1V15c0-0.4,0.2-0.7,0.5-0.9c0.3-0.2,0.7-0.1,1,0.1
	l22,15c0.3,0.2,0.4,0.5,0.4,0.8S55.8,30.6,55.6,30.8z"/>
</svg>
